<mxfile host="app.diagrams.net" modified="2023-08-25T09:18:36.245Z" agent="Mozilla/5.0 (Macintosh; Intel Mac OS X 10_15_7) AppleWebKit/537.36 (KHTML, like Gecko) Chrome/116.0.0.0 Safari/537.36" etag="jQKTBvqseHkjHAPs4Bai" version="21.6.9" type="github">
  <diagram id="3228e29e-7158-1315-38df-8450db1d8a1d" name="Page-1">
    <mxGraphModel dx="1906" dy="757" grid="1" gridSize="10" guides="1" tooltips="1" connect="1" arrows="1" fold="1" page="1" pageScale="1" pageWidth="600" pageHeight="200" background="#ffffff" math="0" shadow="1">
      <root>
        <mxCell id="0" />
        <mxCell id="1" parent="0" />
        <mxCell id="2FnHlDQc3e_-eUdSoOCG-1" value="" style="rounded=1;whiteSpace=wrap;html=1;fillColor=#FFA5A2;" parent="1" vertex="1">
          <mxGeometry x="-513" y="190" width="396" height="400" as="geometry" />
        </mxCell>
        <mxCell id="2Wd3UBVozqNLlvINTNh1-9" style="edgeStyle=orthogonalEdgeStyle;rounded=0;orthogonalLoop=1;jettySize=auto;html=1;exitX=0;exitY=0.5;exitDx=0;exitDy=0;endArrow=none;endFill=0;shape=link;strokeWidth=5;" parent="1" source="2Wd3UBVozqNLlvINTNh1-5" edge="1">
          <mxGeometry relative="1" as="geometry">
            <mxPoint x="-430" y="260" as="targetPoint" />
          </mxGeometry>
        </mxCell>
        <mxCell id="2Wd3UBVozqNLlvINTNh1-5" value="&lt;font style=&quot;font-size: 25px&quot;&gt;MAC&lt;/font&gt;" style="rounded=1;whiteSpace=wrap;html=1;fillColor=#A0ACDE;" parent="1" vertex="1">
          <mxGeometry x="-405" y="232.5" width="100" height="55" as="geometry" />
        </mxCell>
        <mxCell id="fYc7Ru6buci-YKz5Eo-_-1" value="" style="fontColor=#0066CC;verticalAlign=top;verticalLabelPosition=bottom;labelPosition=center;align=center;html=1;outlineConnect=0;gradientColor=none;gradientDirection=north;strokeWidth=2;shape=mxgraph.networks.hub;fillColor=#F19C99;" parent="1" vertex="1">
          <mxGeometry x="-363" y="48" width="130" height="39" as="geometry" />
        </mxCell>
        <mxCell id="fYc7Ru6buci-YKz5Eo-_-4" value="&lt;span style=&quot;font-size: 30px&quot;&gt;交换机&lt;/span&gt;" style="text;html=1;strokeColor=none;fillColor=none;align=center;verticalAlign=middle;whiteSpace=wrap;rounded=0;" parent="1" vertex="1">
          <mxGeometry x="-348" y="10" width="100" height="31" as="geometry" />
        </mxCell>
        <mxCell id="2FnHlDQc3e_-eUdSoOCG-2" value="&lt;font style=&quot;font-size: 20px&quot;&gt;A网口&lt;/font&gt;" style="rounded=1;whiteSpace=wrap;html=1;fillColor=#9AC7BF;strokeColor=#9AC7BF;dashed=1;strokeWidth=3;" parent="1" vertex="1">
          <mxGeometry x="-147" y="230" width="60" height="60" as="geometry" />
        </mxCell>
        <mxCell id="2FnHlDQc3e_-eUdSoOCG-4" value="" style="rounded=1;whiteSpace=wrap;html=1;fillColor=#9AC7BF;strokeColor=#9AC7BF;strokeWidth=3;dashed=1;" parent="1" vertex="1">
          <mxGeometry x="-147" y="400" width="60" height="60" as="geometry" />
        </mxCell>
        <mxCell id="2FnHlDQc3e_-eUdSoOCG-5" value="" style="rounded=1;whiteSpace=wrap;html=1;fillColor=#9AC7BF;strokeColor=#9AC7BF;strokeWidth=3;dashed=1;" parent="1" vertex="1">
          <mxGeometry x="-147" y="490" width="60" height="60" as="geometry" />
        </mxCell>
        <mxCell id="2FnHlDQc3e_-eUdSoOCG-10" style="edgeStyle=orthogonalEdgeStyle;rounded=0;orthogonalLoop=1;jettySize=auto;html=1;exitX=1;exitY=0.5;exitDx=0;exitDy=0;entryX=0;entryY=0.5;entryDx=0;entryDy=0;endArrow=none;endFill=0;strokeWidth=5;shape=link;" parent="1" source="2FnHlDQc3e_-eUdSoOCG-7" target="2FnHlDQc3e_-eUdSoOCG-2" edge="1">
          <mxGeometry relative="1" as="geometry" />
        </mxCell>
        <mxCell id="2Wd3UBVozqNLlvINTNh1-8" style="edgeStyle=orthogonalEdgeStyle;rounded=0;orthogonalLoop=1;jettySize=auto;html=1;exitX=0;exitY=0.5;exitDx=0;exitDy=0;entryX=1;entryY=0.5;entryDx=0;entryDy=0;endArrow=none;endFill=0;strokeWidth=5;shape=link;" parent="1" source="2FnHlDQc3e_-eUdSoOCG-7" target="2Wd3UBVozqNLlvINTNh1-5" edge="1">
          <mxGeometry relative="1" as="geometry" />
        </mxCell>
        <mxCell id="2FnHlDQc3e_-eUdSoOCG-7" value="&lt;font style=&quot;font-size: 25px&quot;&gt;PHY&lt;/font&gt;" style="rounded=1;whiteSpace=wrap;html=1;fillColor=#A0ACDE;" parent="1" vertex="1">
          <mxGeometry x="-275" y="232.5" width="100" height="55" as="geometry" />
        </mxCell>
        <mxCell id="2FnHlDQc3e_-eUdSoOCG-12" value="&lt;span style=&quot;font-size: 20px&quot;&gt;B网口&lt;/span&gt;" style="rounded=1;whiteSpace=wrap;html=1;fillColor=#9AC7BF;strokeWidth=3;dashed=1;strokeColor=#9AC7BF;" parent="1" vertex="1">
          <mxGeometry x="-146.01" y="320" width="60" height="60" as="geometry" />
        </mxCell>
        <mxCell id="2FnHlDQc3e_-eUdSoOCG-13" style="edgeStyle=orthogonalEdgeStyle;rounded=0;orthogonalLoop=1;jettySize=auto;html=1;exitX=1;exitY=0.5;exitDx=0;exitDy=0;entryX=0;entryY=0.5;entryDx=0;entryDy=0;endArrow=none;endFill=0;strokeWidth=5;shape=link;" parent="1" source="2FnHlDQc3e_-eUdSoOCG-15" target="2FnHlDQc3e_-eUdSoOCG-12" edge="1">
          <mxGeometry relative="1" as="geometry" />
        </mxCell>
        <mxCell id="2FnHlDQc3e_-eUdSoOCG-15" value="&lt;font style=&quot;font-size: 25px&quot;&gt;PHY&lt;/font&gt;" style="rounded=1;whiteSpace=wrap;html=1;fillColor=#A0ACDE;" parent="1" vertex="1">
          <mxGeometry x="-274.01" y="322.5" width="100" height="55" as="geometry" />
        </mxCell>
        <mxCell id="2FnHlDQc3e_-eUdSoOCG-16" value="&lt;span style=&quot;font-size: 20px&quot;&gt;C网口&lt;/span&gt;" style="rounded=1;whiteSpace=wrap;html=1;fillColor=#9AC7BF;strokeColor=#9AC7BF;strokeWidth=3;dashed=1;" parent="1" vertex="1">
          <mxGeometry x="-147" y="400" width="60" height="60" as="geometry" />
        </mxCell>
        <mxCell id="2FnHlDQc3e_-eUdSoOCG-17" style="edgeStyle=orthogonalEdgeStyle;rounded=0;orthogonalLoop=1;jettySize=auto;html=1;exitX=1;exitY=0.5;exitDx=0;exitDy=0;entryX=0;entryY=0.5;entryDx=0;entryDy=0;endArrow=none;endFill=0;strokeWidth=5;shape=link;" parent="1" source="2FnHlDQc3e_-eUdSoOCG-19" target="2FnHlDQc3e_-eUdSoOCG-16" edge="1">
          <mxGeometry relative="1" as="geometry" />
        </mxCell>
        <mxCell id="2FnHlDQc3e_-eUdSoOCG-19" value="&lt;font style=&quot;font-size: 25px&quot;&gt;PHY&lt;/font&gt;" style="rounded=1;whiteSpace=wrap;html=1;fillColor=#A0ACDE;" parent="1" vertex="1">
          <mxGeometry x="-275" y="402.5" width="100" height="55" as="geometry" />
        </mxCell>
        <mxCell id="2FnHlDQc3e_-eUdSoOCG-20" value="&lt;span style=&quot;font-size: 20px&quot;&gt;D网口&lt;/span&gt;" style="rounded=1;whiteSpace=wrap;html=1;fillColor=#9AC7BF;strokeColor=#9AC7BF;strokeWidth=3;dashed=1;" parent="1" vertex="1">
          <mxGeometry x="-147" y="490" width="60" height="60" as="geometry" />
        </mxCell>
        <mxCell id="2FnHlDQc3e_-eUdSoOCG-21" style="edgeStyle=orthogonalEdgeStyle;rounded=0;orthogonalLoop=1;jettySize=auto;html=1;exitX=1;exitY=0.5;exitDx=0;exitDy=0;entryX=0;entryY=0.5;entryDx=0;entryDy=0;endArrow=none;endFill=0;strokeWidth=5;shape=link;" parent="1" source="2FnHlDQc3e_-eUdSoOCG-23" target="2FnHlDQc3e_-eUdSoOCG-20" edge="1">
          <mxGeometry relative="1" as="geometry" />
        </mxCell>
        <mxCell id="2FnHlDQc3e_-eUdSoOCG-23" value="&lt;font style=&quot;font-size: 25px&quot;&gt;PHY&lt;/font&gt;" style="rounded=1;whiteSpace=wrap;html=1;fillColor=#A0ACDE;" parent="1" vertex="1">
          <mxGeometry x="-275" y="492.5" width="100" height="55" as="geometry" />
        </mxCell>
        <mxCell id="2FnHlDQc3e_-eUdSoOCG-25" value="" style="shape=flexArrow;endArrow=classic;html=1;strokeWidth=5;endWidth=33;endSize=8.67;width=27;strokeColor=#6DB5A8;fillColor=#6DB5A8;" parent="1" edge="1">
          <mxGeometry width="50" height="50" relative="1" as="geometry">
            <mxPoint x="-298.5" y="110" as="sourcePoint" />
            <mxPoint x="-298.5" y="170" as="targetPoint" />
          </mxGeometry>
        </mxCell>
        <mxCell id="2Wd3UBVozqNLlvINTNh1-14" style="edgeStyle=orthogonalEdgeStyle;rounded=0;orthogonalLoop=1;jettySize=auto;html=1;exitX=0;exitY=0.5;exitDx=0;exitDy=0;endArrow=none;endFill=0;shape=link;strokeWidth=5;" parent="1" source="2Wd3UBVozqNLlvINTNh1-15" edge="1">
          <mxGeometry relative="1" as="geometry">
            <mxPoint x="-429.01" y="350" as="targetPoint" />
          </mxGeometry>
        </mxCell>
        <mxCell id="2Wd3UBVozqNLlvINTNh1-15" value="&lt;font style=&quot;font-size: 25px&quot;&gt;MAC&lt;/font&gt;" style="rounded=1;whiteSpace=wrap;html=1;fillColor=#A0ACDE;" parent="1" vertex="1">
          <mxGeometry x="-404.01" y="322.5" width="100" height="55" as="geometry" />
        </mxCell>
        <mxCell id="2Wd3UBVozqNLlvINTNh1-16" style="edgeStyle=orthogonalEdgeStyle;rounded=0;orthogonalLoop=1;jettySize=auto;html=1;exitX=0;exitY=0.5;exitDx=0;exitDy=0;entryX=1;entryY=0.5;entryDx=0;entryDy=0;endArrow=none;endFill=0;strokeWidth=5;shape=link;" parent="1" target="2Wd3UBVozqNLlvINTNh1-15" edge="1">
          <mxGeometry relative="1" as="geometry">
            <mxPoint x="-274.01" y="350" as="sourcePoint" />
          </mxGeometry>
        </mxCell>
        <mxCell id="2Wd3UBVozqNLlvINTNh1-20" style="edgeStyle=orthogonalEdgeStyle;rounded=0;orthogonalLoop=1;jettySize=auto;html=1;exitX=0;exitY=0.5;exitDx=0;exitDy=0;endArrow=none;endFill=0;shape=link;strokeWidth=5;" parent="1" source="2Wd3UBVozqNLlvINTNh1-21" edge="1">
          <mxGeometry relative="1" as="geometry">
            <mxPoint x="-429.01" y="432.5" as="targetPoint" />
          </mxGeometry>
        </mxCell>
        <mxCell id="2Wd3UBVozqNLlvINTNh1-21" value="&lt;font style=&quot;font-size: 25px&quot;&gt;MAC&lt;/font&gt;" style="rounded=1;whiteSpace=wrap;html=1;fillColor=#A0ACDE;" parent="1" vertex="1">
          <mxGeometry x="-404.01" y="405" width="100" height="55" as="geometry" />
        </mxCell>
        <mxCell id="2Wd3UBVozqNLlvINTNh1-22" style="edgeStyle=orthogonalEdgeStyle;rounded=0;orthogonalLoop=1;jettySize=auto;html=1;exitX=0;exitY=0.5;exitDx=0;exitDy=0;entryX=1;entryY=0.5;entryDx=0;entryDy=0;endArrow=none;endFill=0;strokeWidth=5;shape=link;" parent="1" target="2Wd3UBVozqNLlvINTNh1-21" edge="1">
          <mxGeometry relative="1" as="geometry">
            <mxPoint x="-274.01" y="432.5" as="sourcePoint" />
          </mxGeometry>
        </mxCell>
        <mxCell id="2Wd3UBVozqNLlvINTNh1-25" style="edgeStyle=orthogonalEdgeStyle;rounded=0;orthogonalLoop=1;jettySize=auto;html=1;exitX=0;exitY=0.5;exitDx=0;exitDy=0;endArrow=none;endFill=0;shape=link;strokeWidth=5;" parent="1" source="2Wd3UBVozqNLlvINTNh1-26" edge="1">
          <mxGeometry relative="1" as="geometry">
            <mxPoint x="-429.01" y="520" as="targetPoint" />
          </mxGeometry>
        </mxCell>
        <mxCell id="2Wd3UBVozqNLlvINTNh1-26" value="&lt;font style=&quot;font-size: 25px&quot;&gt;MAC&lt;/font&gt;" style="rounded=1;whiteSpace=wrap;html=1;fillColor=#A0ACDE;" parent="1" vertex="1">
          <mxGeometry x="-404.01" y="492.5" width="100" height="55" as="geometry" />
        </mxCell>
        <mxCell id="2Wd3UBVozqNLlvINTNh1-27" style="edgeStyle=orthogonalEdgeStyle;rounded=0;orthogonalLoop=1;jettySize=auto;html=1;exitX=0;exitY=0.5;exitDx=0;exitDy=0;entryX=1;entryY=0.5;entryDx=0;entryDy=0;endArrow=none;endFill=0;strokeWidth=5;shape=link;" parent="1" target="2Wd3UBVozqNLlvINTNh1-26" edge="1">
          <mxGeometry relative="1" as="geometry">
            <mxPoint x="-274.01" y="520" as="sourcePoint" />
          </mxGeometry>
        </mxCell>
        <mxCell id="2FnHlDQc3e_-eUdSoOCG-6" value="&lt;span style=&quot;font-size: 30px&quot;&gt;转发电路&lt;/span&gt;" style="rounded=1;whiteSpace=wrap;html=1;fillColor=#FFE599;" parent="1" vertex="1">
          <mxGeometry x="-483" y="232.5" width="60" height="315" as="geometry" />
        </mxCell>
        <mxCell id="z5WVHUyE9Uxdyr6KfAr9-1" value="" style="endArrow=none;dashed=1;html=1;strokeWidth=5;fillColor=#6DB5A8;startArrow=classic;startFill=1;strokeColor=#376B73;" edge="1" parent="1">
          <mxGeometry width="50" height="50" relative="1" as="geometry">
            <mxPoint x="-473" y="279" as="sourcePoint" />
            <mxPoint x="-117" y="279" as="targetPoint" />
          </mxGeometry>
        </mxCell>
        <mxCell id="2FnHlDQc3e_-eUdSoOCG-29" value="" style="endArrow=none;dashed=1;html=1;strokeWidth=5;fillColor=#6DB5A8;strokeColor=#376B73;exitX=0.174;exitY=0.875;exitDx=0;exitDy=0;exitPerimeter=0;" parent="1" edge="1">
          <mxGeometry width="50" height="50" relative="1" as="geometry">
            <mxPoint x="-474.95000000000005" y="536" as="sourcePoint" />
            <mxPoint x="-475" y="270" as="targetPoint" />
          </mxGeometry>
        </mxCell>
        <mxCell id="2FnHlDQc3e_-eUdSoOCG-32" value="" style="endArrow=classic;dashed=1;html=1;strokeWidth=5;fillColor=#6DB5A8;startArrow=none;startFill=0;endFill=1;strokeColor=#376B73;" parent="1" edge="1">
          <mxGeometry width="50" height="50" relative="1" as="geometry">
            <mxPoint x="-473" y="540" as="sourcePoint" />
            <mxPoint x="-93" y="540" as="targetPoint" />
          </mxGeometry>
        </mxCell>
      </root>
    </mxGraphModel>
  </diagram>
</mxfile>
